<svg id="Graphic_Element" data-name="Graphic Element" xmlns="http://www.w3.org/2000/svg" viewBox="0 0 960 1200"><path d="M500.29,283.17C489,206.5,423.62,147.87,344.7,147.87c-13.54,0-22.55,9-22.55,22.55s9,22.55,22.55,22.55c54.11,0,101.48,38.34,110.49,92.46-212,11.28-381.1,187.16-381.1,403.66C74.09,912.33,256.75,1095,480,1095S885.91,912.33,885.91,689.09C885.91,472.59,714.53,294.45,500.29,283.17ZM480,1049.9c-198.44,0-360.81-162.37-360.81-360.81S281.56,328.27,480,328.27,840.81,490.64,840.81,689.09,678.44,1049.9,480,1049.9Z" style="fill:#014463"/><path d="M480,328.27c-199.25,0-360.81,161.56-360.81,360.82S280.75,1049.9,480,1049.9,840.81,888.35,840.81,689.09,679.26,328.27,480,328.27Z" style="fill:#ff9255"/><path d="M698.74,402.7c47.35,60.89,74.42,135.3,74.42,218.74,0,198.44-162.37,360.81-360.81,360.81-83.43,0-157.85-27.07-218.73-74.41C259,993.52,362.75,1049.9,480,1049.9c198.44,0,360.81-162.37,360.81-360.81C840.81,571.82,784.43,468.09,698.74,402.7Z" style="fill:#8e4706"/><path d="M540.88,186.21c-27.06,24.81-38.33,60.9-38.33,97,36.07,0,69.9-13.54,97-38.34,24.8-27.07,38.34-60.9,38.34-97C601.76,147.89,567.94,161.41,540.88,186.21Z" style="fill:#c3e8a3"/><path d="M502.55,283.17c36.08,0,69.9-13.53,97-38.34,24.82-27.05,38.34-60.88,38.34-97-36.07,0-69.91,13.53-97,38.34S502.55,247.09,502.55,283.17Z" style="fill:none"/><path d="M678.44,125.32c0-9-9-15.79-18-18-54.14-9-110.5,9-151.1,49.6-38.33,38.35-58.62,97-49.6,151.1,0,9,9,15.78,18,18s18.05,2.25,27.07,2.25c45.1,0,92.45-18,124-51.86C667.17,238.07,687.47,179.43,678.44,125.32ZM599.51,244.83c-27.06,24.81-60.88,38.34-97,38.34,0-36.08,11.27-72.16,38.34-97s60.89-38.34,97-38.34C637.85,184,624.33,217.78,599.51,244.83Z" style="fill:#014463"/><path d="M637.85,150.13c-4.51,27.05-18,51.86-38.34,72.15-27,24.81-60.88,38.34-94.7,38.34-2.26,6.76-2.26,15.79-2.26,22.55,36.08,0,69.92-13.53,99.23-36.08,24.8-27.06,38.32-60.88,38.32-97Z" style="fill:#40931d"/><path d="M389.8,409.46c-4.52-11.27-18-15.78-29.32-11.27-47.35,20.29-90.2,51.87-121.77,90.2-9,9-6.77,22.55,2.25,31.57,2.26,2.25,9,4.51,13.54,4.51,6.76,0,13.53-2.26,20.28-9,27.07-33.82,63.15-60.89,103.74-76.66C389.8,434.27,394.31,420.74,389.8,409.46Z" style="fill:#fcd0b1"/><path d="M218.41,556c-11.27-4.51-24.81,0-29.32,11.28-6.76,15.78-11.27,33.83-15.78,49.62-4.51,11.27,4.5,24.79,15.78,27.06h4.51c11.28,0,20.3-6.78,22.56-15.79a135.91,135.91,0,0,1,13.53-42.86C236.45,574.07,229.69,560.54,218.41,556Z" style="fill:#fcd0b1"/><path d="M660.4,486.13A22.55,22.55,0,1,0,683,508.68,22.57,22.57,0,0,0,660.4,486.13Z" style="fill:#ff7133"/><path d="M592.75,553.78a22.55,22.55,0,1,0,22.55,22.55A22.57,22.57,0,0,0,592.75,553.78Z" style="fill:#ff7133"/><path d="M525.1,486.13a22.55,22.55,0,1,0,22.55,22.55A22.57,22.57,0,0,0,525.1,486.13Z" style="fill:#ff7133"/></svg>